# xmcd CD database file
#
# Track frame offsets:
#	182
#	14130
#	24642
#	32917
#	41782
#	56427
#	66482
#	76252
#	84677
#	103232
#	117557
#	125727
#	135387
#	152145
#	180892
#	199665
#
# Disc length: 2858 seconds
#
# Revision: 7
# Processed by: cddbd v1.5.2PL0 Copyright (c) Steve Scherf et al.
# Submitted via: CDex 1.51
#
DISCID=e30b2810
DTITLE=Various Artist - The Christmas Country Collection
DYEAR=1994
DGENRE=Christmas
TTITLE0=Dolly Parton - White Christmas
TTITLE1=Jim Reeves - O Little Town Of Bethlehem
TTITLE2=Chet Atkins - Jingle Bells
TTITLE3=Loretta Lynn - Frosty The Snowman
TTITLE4=Ronnie Milsap - I'll Be Home For Christmas
TTITLE5=Freddy Fender - Blue Christmas
TTITLE6=Willie Nelson - What a Merry Christmas This Could Be
TTITLE7=Charley Pride - Let It Snow, Let It Snow, Let It Snow
TTITLE8=Alabama - Joseph And Mary's Boy
TTITLE9=Jim Reeves - Mary's Boy Child
TTITLE10=Chet Atkins - Jingle Bell Rock
TTITLE11=Loretta Lynn - Country Christmas
TTITLE12=Dolly Parton - Sleigh Ride
TTITLE13=Ronnie Milsap - Christmas Medley
TTITLE14=Alabama - Santa Claus (I Still Believe In You)
TTITLE15=Freddy Fender - Please Come Home For Christmas
EXTD=YEAR: 1994
EXTT0=
EXTT1=
EXTT2=
EXTT3=
EXTT4=
EXTT5=
EXTT6=
EXTT7=
EXTT8=
EXTT9=
EXTT10=
EXTT11=
EXTT12=
EXTT13=
EXTT14=
EXTT15=
PLAYORDER=
